<svg xmlns="http://www.w3.org/2000/svg" width="100" height="100" viewBox="0 0 100 100">
  <defs>
    <pattern id="circles" patternUnits="userSpaceOnUse" width="100" height="100">
      <circle cx="10" cy="10" r="2" fill="currentColor" opacity="0.5" />
      <circle cx="30" cy="10" r="2" fill="currentColor" opacity="0.5" />
      <circle cx="50" cy="10" r="2" fill="currentColor" opacity="0.5" />
      <circle cx="70" cy="10" r="2" fill="currentColor" opacity="0.5" />
      <circle cx="90" cy="10" r="2" fill="currentColor" opacity="0.5" />
      
      <circle cx="20" cy="30" r="2" fill="currentColor" opacity="0.5" />
      <circle cx="40" cy="30" r="2" fill="currentColor" opacity="0.5" />
      <circle cx="60" cy="30" r="2" fill="currentColor" opacity="0.5" />
      <circle cx="80" cy="30" r="2" fill="currentColor" opacity="0.5" />
      
      <circle cx="10" cy="50" r="2" fill="currentColor" opacity="0.5" />
      <circle cx="30" cy="50" r="2" fill="currentColor" opacity="0.5" />
      <circle cx="50" cy="50" r="2" fill="currentColor" opacity="0.5" />
      <circle cx="70" cy="50" r="2" fill="currentColor" opacity="0.5" />
      <circle cx="90" cy="50" r="2" fill="currentColor" opacity="0.5" />
      
      <circle cx="20" cy="70" r="2" fill="currentColor" opacity="0.5" />
      <circle cx="40" cy="70" r="2" fill="currentColor" opacity="0.5" />
      <circle cx="60" cy="70" r="2" fill="currentColor" opacity="0.5" />
      <circle cx="80" cy="70" r="2" fill="currentColor" opacity="0.5" />
      
      <circle cx="10" cy="90" r="2" fill="currentColor" opacity="0.5" />
      <circle cx="30" cy="90" r="2" fill="currentColor" opacity="0.5" />
      <circle cx="50" cy="90" r="2" fill="currentColor" opacity="0.5" />
      <circle cx="70" cy="90" r="2" fill="currentColor" opacity="0.5" />
      <circle cx="90" cy="90" r="2" fill="currentColor" opacity="0.5" />
    </pattern>
  </defs>
  <rect width="100%" height="100%" fill="url(#circles)" />
</svg>
